<svg width="767" height="762" viewBox="0 0 767 762" fill="none" xmlns="http://www.w3.org/2000/svg">
<path d="M569.942 728.229C629.474 680.629 595.626 580.659 614.155 550.118C640.94 506.003 698.544 490.044 733.401 451.707C783.943 395.853 772.385 306.247 732.3 243.055C692.215 179.864 626.355 131.897 557.467 98.604C488.58 65.3114 413.639 44.2169 340.257 20.6461C286.321 3.3119 222.753 -14.2057 176.89 17.8946C155.059 32.9359 141.299 56.5067 128.182 79.3438C99.7468 128.962 70.3022 182.615 75.5307 239.203C78.1908 268.002 89.8402 295.792 89.6568 324.774C89.6568 401.631 8.29439 458.861 0.589276 535.719C-4.6392 586.896 25.5392 636.605 66.7249 668.247C107.911 699.889 190.007 676.135 253.299 688.791C304.391 698.88 456.384 819.119 569.942 728.229Z" fill="#363A42"/>
</svg>
