<svg width="619" height="689" viewBox="0 0 619 689" fill="none" xmlns="http://www.w3.org/2000/svg">
<path d="M489.642 127.662C458.805 101.958 422.53 16.8909 382.261 7.87818C340.269 -1.47782 294.975 -4.26249 253.764 10.3756C229.78 19.2116 208.105 33.4069 190.358 51.9001C172.611 70.3934 159.251 92.706 151.279 117.17C141.827 146.815 139.56 209.876 130.671 239.682C114.278 294.485 76.1291 324.327 42.1958 371.523C8.26246 418.72 -8.82863 471.929 5.84633 526.237C19.9761 579.032 82.4097 583.981 135.411 603.136C188.413 622.29 210.382 657.803 262.627 678.825C282.271 686.76 312.428 689.708 333.98 688.555C368.849 686.666 546.645 601.236 542.945 515.074C541.048 470.971 596.581 446.74 609.401 408.328C621.418 372.549 618.662 314.809 615.422 276.978C608.676 198.135 534.928 165.407 489.642 127.662Z" fill="#D1BCBC"/>
</svg>
