<svg width="717" height="717" viewBox="0 0 717 717" fill="none" xmlns="http://www.w3.org/2000/svg">
<path d="M691.009 383.723C716.549 347.495 723.09 261.802 711.41 217.562C704.246 190.391 692.566 162.523 670.763 148.241C646.313 132.217 615.788 137.094 587.6 132.739C515.651 121.592 463.479 51.0522 396.669 19.0044C357.268 0.0195007 312.572 -4.85731 270.523 4.89638C232.368 13.7792 195.303 36.4217 175.057 73.6947C151.074 118.109 154.968 173.844 145.624 224.703C137.525 269.291 118.681 311.441 91.7391 345.405C67.2886 376.233 35.9858 400.792 17.4533 436.497C-4.03819 477.95 -4.97259 530.725 10.7567 575.139C26.4859 619.553 57.7887 656.129 94.5423 680.688C171.164 731.546 273.794 728.759 348.235 673.721C373.931 654.736 396.202 630.178 422.209 611.541C440.898 597.956 461.299 587.679 480.922 575.661C539.79 539.608 649.427 442.593 691.009 383.723Z" fill="#87A496"/>
</svg>
